<?xml version="1.0"?>
<svg xmlns="http://www.w3.org/2000/svg" xmlns:xlink="http://www.w3.org/1999/xlink" xmlns:svgjs="http://svgjs.com/svgjs" version="1.1" width="512" height="512" x="0" y="0" viewBox="0 0 512 512" style="enable-background:new 0 0 512 512" xml:space="preserve" class=""><g><path xmlns="http://www.w3.org/2000/svg" d="m426.273438 196.269531c-8.40625-19.765625-25.90625-38.660156-50.613282-54.632812-4.652344-3.007813-10.851562-1.671875-13.855468 2.976562-3.007813 4.648438-1.675782 10.851563 2.972656 13.855469 21.332031 13.792969 36.21875 29.574219 43.050781 45.644531 1.164063 2.738281 0 4.980469-.554687 5.820313-.570313.863281-2.234376 2.875-5.335938 2.875h-62.105469v-19.957032c0-21.601562-17.574219-39.175781-39.175781-39.175781h-172.550781c-21.328125 0-38.714844 17.128907-39.15625 38.351563-.199219.785156-.3125 1.605468-.3125 2.453125v18.328125h-62.214844c-3.097656 0-4.761719-2.011719-5.332031-2.875-.554688-.839844-1.71875-3.082032-.554688-5.820313 22.816406-53.664062 116.375-85.734375 193.644532-85.734375 25.261718 0 50.160156 2.886719 73.996093 8.574219 5.382813 1.285156 10.789063-2.035156 12.074219-7.417969 1.285156-5.386718-2.035156-10.789062-7.417969-12.074218-22.859375-5.457032-46.617187-8.480469-70.726562-9.027344v-20.402344c0-5.535156-4.488281-10.019531-10.019531-10.019531-.015626 0-.027344 0-.042969 0s-.027344 0-.042969 0c-13.222656 0-23.984375-10.761719-23.984375-23.984375 0-13.226563 10.757813-23.984375 23.984375-23.984375 13.222656 0 23.984375 10.757812 23.984375 23.984375 0 5.535156 4.488281 10.019531 10.019531 10.019531 5.535156 0 10.023438-4.484375 10.023438-10.019531 0-24.277344-19.75-44.027344-44.027344-44.027344s-44.027344 19.75-44.027344 44.027344c0 20.855468 14.585938 38.363281 34.089844 42.882812v11.648438c-43.941406 1.5625-87.261719 11.5625-123.160156 28.566406-38.289063 18.136719-65.566406 42.695312-76.8125 69.144531-3.445313 8.109375-2.59375 17.347657 2.28125 24.71875 4.914062 7.425781 13.15625 11.863281 22.050781 11.863281h62.214844v269.128907c0 5.53125 4.484375 10.019531 10.019531 10.019531h191.855469c5.53125 0 10.019531-4.488281 10.019531-10.019531v-27.054688h29.277344c5.535156 0 10.023437-4.488281 10.023437-10.023437v-232.054688h62.105469c8.898438 0 17.140625-4.433594 22.050781-11.859375 4.878907-7.371093 5.730469-16.609375 2.285157-24.71875zm-317.597657 295.6875v-24.683593c.1875-.761719.296875-1.550782.296875-2.371094v-272.050782c0-10.550781 8.582032-19.132812 19.132813-19.132812h172.550781c10.550781 0 19.132812 8.582031 19.132812 19.132812v19.957032h-19.257812v-12.878906c0-5.535157-4.484375-10.023438-10.019531-10.023438-5.535157 0-10.019531 4.488281-10.019531 10.023438v22.859374c0 .015626-.003907.027344-.003907.039063 0 .015625.003907.027344.003907.039063v269.089843zm211.113281-37.074219h-19.257812v-222.035156h19.257812zm0 0" fill="#37dfe7" data-original="#000000" style=""/><path xmlns="http://www.w3.org/2000/svg" d="m141.09375 354.5625c-5.53125 0-10.019531 4.488281-10.019531 10.023438v93.347656c0 5.535156 4.488281 10.019531 10.019531 10.019531 5.535156 0 10.023438-4.484375 10.023438-10.019531v-93.347656c0-5.535157-4.488282-10.023438-10.023438-10.023438zm0 0" fill="#37dfe7" data-original="#000000" style=""/><path xmlns="http://www.w3.org/2000/svg" d="m141.089844 332.628906c2.644531 0 5.222656-1.070312 7.09375-2.9375 1.863281-1.871094 2.929687-4.449218 2.929687-7.082031 0-2.648437-1.066406-5.222656-2.929687-7.085937-1.871094-1.875-4.449219-2.9375-7.09375-2.9375-2.636719 0-5.21875 1.0625-7.085938 2.9375-1.863281 1.863281-2.933594 4.4375-2.933594 7.085937 0 2.632813 1.070313 5.210937 2.933594 7.082031 1.867188 1.867188 4.449219 2.9375 7.085938 2.9375zm0 0" fill="#37dfe7" data-original="#000000" style=""/><path xmlns="http://www.w3.org/2000/svg" d="m330.8125 140.550781c2.636719 0 5.222656-1.070312 7.085938-2.9375 1.863281-1.863281 2.933593-4.449219 2.933593-7.082031 0-2.636719-1.070312-5.222656-2.933593-7.085938-1.863282-1.863281-4.449219-2.9375-7.085938-2.9375-2.644531 0-5.222656 1.074219-7.085938 2.9375-1.863281 1.863282-2.9375 4.449219-2.9375 7.085938 0 2.632812 1.074219 5.21875 2.9375 7.082031 1.863282 1.867188 4.449219 2.9375 7.085938 2.9375zm0 0" fill="#37dfe7" data-original="#000000" style=""/></g></svg>
