<?xml version="1.0"?>
<svg xmlns="http://www.w3.org/2000/svg" xmlns:xlink="http://www.w3.org/1999/xlink" xmlns:svgjs="http://svgjs.com/svgjs" version="1.1" width="512" height="512" x="0" y="0" viewBox="0 0 480 480" style="enable-background:new 0 0 512 512" xml:space="preserve" class=""><g>
<g xmlns="http://www.w3.org/2000/svg">
	<g>
		<rect x="336" y="344" width="16" height="16" fill="#42d0e7" data-original="#000000" style="" class=""/>
	</g>
</g>
<g xmlns="http://www.w3.org/2000/svg">
	<g>
		<polygon points="72,16 72,0 56,0 56,16 40,16 40,32 56,32 56,48 72,48 72,32 88,32 88,16   " fill="#42d0e7" data-original="#000000" style="" class=""/>
	</g>
</g>
<g xmlns="http://www.w3.org/2000/svg">
	<g>
		<polygon points="32,168 32,152 16,152 16,168 0,168 0,184 16,184 16,200 32,200 32,184 48,184 48,168   " fill="#42d0e7" data-original="#000000" style="" class=""/>
	</g>
</g>
<g xmlns="http://www.w3.org/2000/svg">
	<g>
		<polygon points="424,48 424,32 408,32 408,48 392,48 392,64 408,64 408,80 424,80 424,64 440,64 440,48   " fill="#42d0e7" data-original="#000000" style="" class=""/>
	</g>
</g>
<g xmlns="http://www.w3.org/2000/svg">
	<g>
		<polygon points="464,200 464,184 448,184 448,200 432,200 432,216 448,216 448,232 464,232 464,216 480,216 480,200   " fill="#42d0e7" data-original="#000000" style="" class=""/>
	</g>
</g>
<g xmlns="http://www.w3.org/2000/svg">
	<g>
		<path d="M440,312h-16.552c-1.604-12.689-6.986-24.602-15.448-34.192V136c0-4.418-3.582-8-8-8c-30.911-0.04-55.96-25.089-56-56V8    c0-4.418-3.582-8-8-8h-48c-4.418,0-8,3.582-8,8c0,26.464-3.896,88-40,88s-40-61.536-40-88c0-4.418-3.582-8-8-8h-48    c-4.418,0-8,3.582-8,8v64c-0.04,30.911-25.089,55.96-56,56c-4.418,0-8,3.582-8,8v137.248    c-8.721,11.199-14.106,24.63-15.536,38.752H40c-4.418,0-8,3.582-8,8v32c0,4.418,3.582,8,8,8h9l15.072,113.056    c0.529,3.974,3.919,6.943,7.928,6.944h336c4.009-0.001,7.399-2.97,7.928-6.944L431,360h9c4.418,0,8-3.582,8-8v-32    C448,315.582,444.418,312,440,312z M88,143.552c36.419-4.116,63.955-34.901,64-71.552V16h32.096c1.544,61.992,21.256,96,55.904,96    s54.4-34.008,55.904-96H328v56c0.045,36.651,27.581,67.436,64,71.552v121.104c-15.203-8.871-33.405-11.035-50.264-5.976    c-13.619-15.908-33.174-25.522-54.088-26.592c-4.343-48.407-47.104-84.128-95.511-79.785C146.746,156.375,111.975,194.427,112,240    c0,2.16,0.096,4.368,0.288,6.656c-8.71,2.319-16.936,6.177-24.288,11.392V143.552z M87.272,280H88v-0.8    c9.086-9.808,21.198-16.286,34.4-18.4c0.096,0,0.184-0.08,0.28-0.104c11.046-1.709,22.349-0.324,32.656,4l6.232-14.736    c-10.558-4.397-21.971-6.363-33.392-5.752c-0.08-1.424-0.176-2.856-0.176-4.208c0.151-39.764,32.508-71.877,72.272-71.727    c36.847,0.14,67.642,28.076,71.36,64.734c-7.899,1.28-15.542,3.816-22.64,7.512l7.376,14.208    c7.366-3.834,15.455-6.08,23.744-6.592c0.12,0,0.232,0.056,0.352,0.048l1.168-0.064c0.8-0.056,1.6-0.12,2.4-0.12    c19.204,0.052,37.23,9.266,48.52,24.8c2.162,2.969,6.068,4.084,9.472,2.704c24.529-9.938,52.47,1.89,62.408,26.419    c1.315,3.245,2.27,6.624,2.848,10.077H248c-4.418,0-8,3.582-8,8v96c0,4.418-3.582,8-8,8s-8-3.582-8-8v-64    c0-13.255-10.745-24-24-24s-24,10.745-24,24v24c0,4.418-3.582,8-8,8s-8-3.582-8-8v-56c0-4.418-3.582-8-8-8H72.584    C74.142,300.096,79.262,288.942,87.272,280z M432,344h-64v16h46.864l-13.872,104H79.008L65.136,360H112v-16H48v-16h96v48    c0,13.255,10.745,24,24,24s24-10.745,24-24v-24c0-4.418,3.582-8,8-8s8,3.582,8,8v64c0,13.255,10.745,24,24,24s24-10.745,24-24v-88    h176V344z" fill="#42d0e7" data-original="#000000" style="" class=""/>
	</g>
</g>
<g xmlns="http://www.w3.org/2000/svg">
</g>
<g xmlns="http://www.w3.org/2000/svg">
</g>
<g xmlns="http://www.w3.org/2000/svg">
</g>
<g xmlns="http://www.w3.org/2000/svg">
</g>
<g xmlns="http://www.w3.org/2000/svg">
</g>
<g xmlns="http://www.w3.org/2000/svg">
</g>
<g xmlns="http://www.w3.org/2000/svg">
</g>
<g xmlns="http://www.w3.org/2000/svg">
</g>
<g xmlns="http://www.w3.org/2000/svg">
</g>
<g xmlns="http://www.w3.org/2000/svg">
</g>
<g xmlns="http://www.w3.org/2000/svg">
</g>
<g xmlns="http://www.w3.org/2000/svg">
</g>
<g xmlns="http://www.w3.org/2000/svg">
</g>
<g xmlns="http://www.w3.org/2000/svg">
</g>
<g xmlns="http://www.w3.org/2000/svg">
</g>
</g></svg>
